<svg width="16" height="15" viewBox="0 0 16 15" fill="none" xmlns="http://www.w3.org/2000/svg">
<path d="M14.25 2.375H12.2027L10.0597 0.231958C9.91128 0.0834817 9.70995 4.48379e-05 9.5 0H6.33333C6.12339 4.48379e-05 5.92206 0.0834817 5.77362 0.231958L3.63058 2.375H1.58333C0.710125 2.375 0 3.08512 0 3.95833V12.6667C0 13.5399 0.710125 14.25 1.58333 14.25H14.25C15.1232 14.25 15.8333 13.5399 15.8333 12.6667V3.95833C15.8333 3.08512 15.1232 2.375 14.25 2.375ZM7.91667 11.875C5.77125 11.875 3.95833 10.0621 3.95833 7.91667C3.95833 5.77125 5.77125 3.95833 7.91667 3.95833C10.0621 3.95833 11.875 5.77125 11.875 7.91667C11.875 10.0621 10.0621 11.875 7.91667 11.875Z" fill="#2E2E2E"/>
</svg>
