<svg width="31" height="31" viewBox="0 0 31 31" fill="none" xmlns="http://www.w3.org/2000/svg">
<path d="M14.2085 10.3333C14.2085 9.6229 13.6272 9.04165 12.9168 9.04165H3.87516C3.16475 9.04165 2.5835 9.6229 2.5835 10.3333C2.5835 11.0437 3.16475 11.625 3.87516 11.625H12.9168C13.6272 11.625 14.2085 11.0437 14.2085 10.3333ZM14.2085 20.6667C14.2085 19.9562 13.6272 19.375 12.9168 19.375H3.87516C3.16475 19.375 2.5835 19.9562 2.5835 20.6667C2.5835 21.3771 3.16475 21.9583 3.87516 21.9583H12.9168C13.6272 21.9583 14.2085 21.3771 14.2085 20.6667ZM22.0231 13.2912C21.9036 13.411 21.7616 13.506 21.6054 13.5708C21.4491 13.6356 21.2816 13.669 21.1125 13.669C20.9433 13.669 20.7758 13.6356 20.6195 13.5708C20.4633 13.506 20.3213 13.411 20.2018 13.2912L17.4635 10.5529C17.222 10.3114 17.0863 9.98383 17.0863 9.64228C17.0863 9.47316 17.1196 9.3057 17.1843 9.14945C17.2491 8.99321 17.3439 8.85124 17.4635 8.73165C17.5831 8.61207 17.7251 8.51721 17.8813 8.45249C18.0375 8.38777 18.205 8.35446 18.3741 8.35446C18.7157 8.35446 19.0432 8.49014 19.2847 8.73165L21.106 10.5529L25.6785 5.9804C25.92 5.73889 26.2476 5.60321 26.5891 5.60321C26.9307 5.60321 27.2582 5.73889 27.4997 5.9804C27.7413 6.22192 27.8769 6.54948 27.8769 6.89103C27.8769 7.23258 27.7413 7.56014 27.4997 7.80165L22.0231 13.2912ZM22.0231 23.6246C21.9036 23.7443 21.7616 23.8393 21.6054 23.9041C21.4491 23.9689 21.2816 24.0023 21.1125 24.0023C20.9433 24.0023 20.7758 23.9689 20.6195 23.9041C20.4633 23.8393 20.3213 23.7443 20.2018 23.6246L17.4635 20.8862C17.222 20.6447 17.0863 20.3172 17.0863 19.9756C17.0863 19.6341 17.222 19.3065 17.4635 19.065C17.705 18.8235 18.0326 18.6878 18.3741 18.6878C18.7157 18.6878 19.0432 18.8235 19.2847 19.065L21.106 20.8862L25.6785 16.3137C25.7981 16.1942 25.9401 16.0993 26.0963 16.0346C26.2525 15.9699 26.42 15.9365 26.5891 15.9365C26.7582 15.9365 26.9257 15.9699 27.0819 16.0346C27.2382 16.0993 27.3802 16.1942 27.4997 16.3137C27.6193 16.4333 27.7142 16.5753 27.7789 16.7315C27.8436 16.8878 27.8769 17.0552 27.8769 17.2244C27.8769 17.3935 27.8436 17.5609 27.7789 17.7172C27.7142 17.8734 27.6193 18.0154 27.4997 18.135L22.0231 23.6246Z" fill="white"/>
</svg>
