<svg width="31" height="31" viewBox="0 0 31 31" fill="none" xmlns="http://www.w3.org/2000/svg">
<path d="M14.2083 10.3334C14.2083 9.62296 13.6271 9.04171 12.9167 9.04171H3.87501C3.16459 9.04171 2.58334 9.62296 2.58334 10.3334C2.58334 11.0438 3.16459 11.625 3.87501 11.625H12.9167C13.6271 11.625 14.2083 11.0438 14.2083 10.3334ZM14.2083 20.6667C14.2083 19.9563 13.6271 19.375 12.9167 19.375H3.87501C3.16459 19.375 2.58334 19.9563 2.58334 20.6667C2.58334 21.3771 3.16459 21.9584 3.87501 21.9584H12.9167C13.6271 21.9584 14.2083 21.3771 14.2083 20.6667ZM22.0229 13.2913C21.9034 13.411 21.7615 13.506 21.6052 13.5709C21.449 13.6357 21.2815 13.669 21.1123 13.669C20.9431 13.669 20.7756 13.6357 20.6194 13.5709C20.4631 13.506 20.3212 13.411 20.2017 13.2913L17.4633 10.553C17.2218 10.3115 17.0862 9.98389 17.0862 9.64234C17.0862 9.47322 17.1195 9.30576 17.1842 9.14951C17.2489 8.99327 17.3438 8.8513 17.4633 8.73171C17.5829 8.61213 17.7249 8.51727 17.8811 8.45255C18.0374 8.38783 18.2049 8.35452 18.374 8.35452C18.7155 8.35452 19.0431 8.4902 19.2846 8.73171L21.1058 10.553L25.6783 5.98046C25.9199 5.73895 26.2474 5.60327 26.589 5.60327C26.9305 5.60327 27.2581 5.73895 27.4996 5.98046C27.7411 6.22198 27.8768 6.54954 27.8768 6.89109C27.8768 7.23264 27.7411 7.5602 27.4996 7.80171L22.0229 13.2913ZM22.0229 23.6246C21.9034 23.7444 21.7615 23.8394 21.6052 23.9042C21.449 23.969 21.2815 24.0024 21.1123 24.0024C20.9431 24.0024 20.7756 23.969 20.6194 23.9042C20.4631 23.8394 20.3212 23.7444 20.2017 23.6246L17.4633 20.8863C17.2218 20.6448 17.0862 20.3172 17.0862 19.9757C17.0862 19.6341 17.2218 19.3066 17.4633 19.065C17.7049 18.8235 18.0324 18.6879 18.374 18.6879C18.7155 18.6879 19.0431 18.8235 19.2846 19.065L21.1058 20.8863L25.6783 16.3138C25.7979 16.1942 25.9399 16.0994 26.0961 16.0346C26.2524 15.9699 26.4198 15.9366 26.589 15.9366C26.7581 15.9366 26.9256 15.9699 27.0818 16.0346C27.238 16.0994 27.38 16.1942 27.4996 16.3138C27.6192 16.4334 27.714 16.5754 27.7788 16.7316C27.8435 16.8878 27.8768 17.0553 27.8768 17.2244C27.8768 17.3935 27.8435 17.561 27.7788 17.7172C27.714 17.8735 27.6192 18.0155 27.4996 18.135L22.0229 23.6246Z" fill="#B5B5B5"/>
</svg>
