<svg width="25" height="25" viewBox="0 0 25 25" fill="none" xmlns="http://www.w3.org/2000/svg">
<path d="M12.5 21.875C14.5801 21.8747 16.6011 21.1826 18.2447 19.9077C19.8883 18.6327 21.0612 16.8474 21.5788 14.8327C22.0963 12.818 21.9292 10.6884 21.1036 8.77911C20.278 6.86985 18.8409 5.28938 17.0185 4.28652C15.1961 3.28365 13.0919 2.91536 11.0372 3.23962C8.9825 3.56388 7.094 4.56227 5.669 6.07762C4.24401 7.59297 3.36345 9.53921 3.16596 11.6099C2.96847 13.6806 3.46526 15.7582 4.57812 17.5156L3.12499 21.875L7.48437 20.4219C8.98393 21.3736 10.7239 21.8777 12.5 21.875Z" fill="#B5B5B5" stroke="#B5B5B5" stroke-width="2" stroke-linecap="round" stroke-linejoin="round"/>
</svg>
