<svg width="41" height="57" viewBox="0 0 41 57" fill="none" xmlns="http://www.w3.org/2000/svg">
<g clip-path="url(#clip0_12_166)">
<path d="M39.7421 0C40.2745 0.274609 40.7186 0.535859 40.9179 1.13258V42.508C40.676 43.1701 40.0782 43.6243 39.3481 43.6451L8.16197 43.6555C2.41848 44.2463 1.72335 51.962 7.29041 53.4969C18.0169 53.8813 28.8118 53.5414 39.5626 53.6705C41.4152 54.0728 41.4852 56.3409 39.7436 57H7.40601C3.44062 56.3543 0.296605 53.2416 0 49.2679L0.0197737 7.52875C0.354405 3.9618 3.71137 0.387422 7.40601 0H39.7406H39.7421ZM8.2867 10.1576C7.68436 10.257 7.06834 10.7959 6.91471 11.3763L6.83257 31.7894C6.85083 32.5509 7.37863 33.2114 8.11026 33.4341L32.403 33.5142C33.1818 33.4964 33.8571 32.9813 34.0853 32.2644L34.1674 11.8512C34.1492 11.0898 33.6214 10.4292 32.8897 10.2066L8.28822 10.1576H8.2867Z" fill="#D2D2D2"/>
<path d="M8.17413 47.0072L39.4576 46.9805C41.2647 47.1823 41.5704 49.5351 39.9185 50.2149C29.2848 50.3916 18.5477 50.3916 7.91403 50.2149C6.36256 49.593 6.50402 47.3471 8.17413 47.0072Z" fill="#D2D2D2"/>
<path d="M30.7466 13.4707V19.7051C29.0962 17.9773 27.0854 16.337 24.4829 16.9768C22.7352 17.4073 21.1487 18.8783 20.046 20.2098C19.541 20.8184 17.915 23.4902 17.2533 23.4902H10.2504V13.4707H30.745H30.7466ZM15.1208 16.8343C12.9913 17.1341 13.4111 20.3389 15.533 20.1445C17.7765 19.9381 17.3856 16.5152 15.1208 16.8343Z" fill="#D2D2D2"/>
<path d="M30.7466 30.1699H10.252V26.83H17.3674C20.843 26.83 21.9778 21.8752 24.7187 20.4353C26.0527 19.7347 27.0566 20.6639 27.9585 21.5961C28.3951 22.0474 30.7466 25.1542 30.7466 25.5505V30.1699Z" fill="#D2D2D2"/>
</g>
<defs>
<clipPath id="clip0_12_166">
<rect width="41" height="57" fill="white"/>
</clipPath>
</defs>
</svg>
