<svg width="50" height="50" viewBox="0 0 50 50" fill="none" xmlns="http://www.w3.org/2000/svg">
<g clip-path="url(#clip0_12_150)">
<path d="M5.3914 0.148324C8.86352 -0.287203 13.1055 0.405286 16.6588 0.133807C24.612 1.67557 21.4037 10.8565 22.0532 16.5822C20.6035 24.638 11.3382 21.4282 5.58276 22.0713C2.73403 21.6605 0.492732 19.4393 0.0926046 16.5822C0.299917 13.053 -0.190094 9.20294 0.0868056 5.71291C0.297018 3.04894 2.73983 0.480777 5.3914 0.148324ZM10.3944 7.1037C5.47403 7.77876 6.14526 15.7489 11.6586 15.1058C16.7037 14.5178 16.0223 6.33281 10.3944 7.1037Z" fill="#D2D2D2"/>
<path d="M33.2265 0.14808C36.6986 -0.287447 40.9405 0.405041 44.4938 0.133563C52.4471 1.67678 49.2388 10.8562 49.8883 16.582C48.4386 24.6378 39.1733 21.4279 33.4178 22.0711C30.5691 21.6602 28.3278 19.439 27.9277 16.582C28.135 13.0528 27.645 9.20269 27.9219 5.71267C28.1321 3.04869 30.5749 0.480533 33.2265 0.14808ZM38.2295 7.10345C33.3091 7.77852 33.9803 15.7487 39.4937 15.1055C44.5388 14.5176 43.8574 6.33257 38.2295 7.10345Z" fill="#D2D2D2"/>
<path d="M5.39152 27.9667C8.86364 27.5312 13.1056 28.2236 16.6589 27.9522C24.6121 29.4939 21.4039 38.6748 22.0534 44.4006C20.6036 52.4564 11.3383 49.2465 5.58288 49.8897C2.73415 49.4788 0.492854 47.2576 0.0927266 44.4006C0.300039 40.8714 -0.189972 37.0213 0.0869277 33.5313C0.29714 30.8673 2.73995 28.2991 5.39152 27.9667ZM10.3946 34.9221C5.47415 35.5971 6.14538 43.5673 11.6587 42.9241C16.7038 42.3362 16.0224 34.1512 10.3946 34.9221Z" fill="#D2D2D2"/>
<path d="M38.779 35.7887C42.9586 35.6319 43.0587 42.0037 38.9501 42.0545C34.9169 42.1039 34.7444 35.9412 38.779 35.7887Z" fill="#D2D2D2"/>
<path d="M44.4272 29.7059C49.1374 29.0235 49.3636 35.6523 45.2506 35.8642C41.3784 36.0631 40.8681 30.2227 44.4272 29.7059Z" fill="#D2D2D2"/>
<path d="M32.029 29.7045C36.7015 28.9118 37.0668 35.648 32.8554 35.8643C29.0092 36.0617 28.5293 30.2968 32.029 29.7045Z" fill="#D2D2D2"/>
<path d="M32.4712 41.9848C36.4637 41.6713 36.9828 47.6961 33.2961 48.1403C28.7308 48.6905 28.4525 42.3013 32.4712 41.9848Z" fill="#D2D2D2"/>
<path d="M44.8665 41.9848C49.1664 41.6465 49.41 48.6324 44.6171 48.1504C41.1088 47.7976 41.1247 42.2795 44.8665 41.9848Z" fill="#D2D2D2"/>
</g>
<defs>
<clipPath id="clip0_12_150">
<rect width="50" height="50" fill="white"/>
</clipPath>
</defs>
</svg>
