<svg width="61" height="57" viewBox="0 0 61 57" fill="none" xmlns="http://www.w3.org/2000/svg">
<path d="M44.4529 27.2567L56.3048 27.2897C58.3406 27.6216 59.8306 29.2528 59.9932 31.2968C60.5474 38.2592 59.5651 45.9381 59.9932 52.9748C59.8373 54.9462 58.6376 56.3661 56.761 56.9406L17.8605 57C15.6587 56.7309 14.2384 55.0221 14.0642 52.8527C13.5166 45.9695 14.4873 38.3797 14.0642 31.4223C14.2317 29.3155 15.7118 27.544 17.8654 27.2798L29.5414 27.2584L31.7515 23.0185L32.1663 22.8121L42.1084 22.8386L44.4496 27.2567H44.4529ZM36.4438 30.037C25.3436 30.6611 20.7824 44.4439 29.3174 51.5417C35.9776 57.0809 46.3212 53.8185 48.7254 45.6013C51.05 37.6566 44.7831 29.5665 36.4422 30.037H36.4438ZM52.9979 30.0288C49.1037 30.3045 49.3758 36.1954 53.207 36.1888C57.3633 36.1822 57.1808 29.7316 52.9979 30.0288Z" fill="#D2D2D2"/>
<path d="M39.9546 20.9613H36.8436L28.5109 3.18632C28.0961 2.81814 27.6398 2.85281 27.1769 3.10872L3.44829 14.169C2.89411 14.514 2.90738 15.0919 3.18281 15.6334C6.23745 21.5177 8.62342 27.9435 11.6797 33.8014C11.7859 34.0061 12.2024 34.3561 12.2024 34.3958V41.3928L0.197864 15.8811C-0.341385 14.4364 0.262574 12.8349 1.51197 11.9946L26.7654 0.222713C28.3599 -0.325429 29.9594 0.145115 30.8936 1.5584L39.9529 20.9613H39.9546Z" fill="#D2D2D2"/>
<path d="M34.4795 20.8466H30.3729C29.7739 21.9313 29.2297 23.6864 28.5345 24.6506C28.2889 24.9907 27.7497 25.2565 27.3282 25.3077C22.6326 25.8789 15.5062 23.4222 12.7635 28.3984L11.9588 30.3813L5 15.4378L27.076 5L34.4795 20.8466ZM17.8026 12.674C13.8304 11.0791 9.80346 14.5149 11.3482 18.6639C12.3421 21.3337 15.2557 23.0871 17.9005 23.7838C19.0022 24.0744 22.2892 24.6341 23.2465 24.2213C23.7227 24.0166 25.3471 21.5087 25.664 20.9308C27.1474 18.2198 27.9836 14.7526 26.5351 11.8485C24.5955 7.957 18.8612 8.48698 17.8009 12.6756L17.8026 12.674Z" fill="#D2D2D2"/>
<path d="M52.8668 20.4874C53.7976 20.3636 54.4314 21.658 53.6416 22.2606C53.4127 22.4356 50.5986 23.4774 50.2883 23.5072C49.3227 23.5996 48.7635 22.3564 49.5367 21.767C49.7159 21.6299 52.6146 20.5221 52.8668 20.4874Z" fill="#D2D2D2"/>
<path d="M45.0203 12.8135C46.0042 12.5922 46.2995 13.4441 46.1203 14.2829C46.0357 14.6808 45.2028 16.8321 44.9854 17.1144C44.3267 17.968 43.0259 17.4149 43.2134 16.35C43.2731 16.0165 44.2006 13.5729 44.3815 13.2956C44.5192 13.0859 44.773 12.8696 45.0203 12.8151V12.8135Z" fill="#D2D2D2"/>
<path d="M49.5036 16.1584C50.3183 16.0792 50.7829 16.8783 50.4676 17.6163C50.3979 17.7781 48.143 19.9855 47.9655 20.078C47.0828 20.5402 46.1337 19.576 46.7427 18.6135C46.9102 18.351 48.6275 16.6372 48.9096 16.4358C49.0888 16.3087 49.2796 16.1782 49.5036 16.1568V16.1584Z" fill="#D2D2D2"/>
<path d="M35.571 32.0165C45.9296 30.8542 51.488 43.3773 43.746 49.9335C36.7574 55.8525 26.0653 50.3859 26.7655 41.3333C27.1156 36.8029 30.9849 32.5317 35.571 32.0165ZM36.6927 33.8756C25.6223 34.3131 26.5282 51.3039 37.7745 50.4288C48.3089 49.6099 47.4942 33.448 36.6927 33.8756Z" fill="#D2D2D2"/>
</svg>
